{"glyphs":{"0":{"ha":735,"x_min":50,"x_max":686,"o":"m 249 -7 q 166 15 203 -7 q 103 78 129 38 q 64 174 78 119 q 50 293 50 229 q 61 437 50 363 q 94 583 72 511 q 149 719 117 656 q 226 833 182 783 q 324 910 269 882 q 442 938 378 938 q 553 911 507 938 q 629 840 600 885 q 672 742 658 796 q 686 635 686 689 q 659 453 686 544 q 587 279 632 361 q 485 133 542 197 q 367 31 428 68 q 249 -7 306 -7 m 243 78 q 329 109 282 78 q 424 196 376 140 q 512 325 472 251 q 576 482 551 399 q 600 653 600 565 q 564 798 600 743 q 453 853 528 853 q 336 815 388 853 q 247 713 285 776 q 184 573 208 649 q 147 421 160 497 q 135 281 135 344 q 169 128 135 179 q 243 78 204 78 z "},"1":{"ha":414,"x_min":114,"x_max":293,"o":"m 156 0 q 126 12 139 0 q 115 46 114 24 l 207 896 q 223 928 210 918 q 253 938 236 938 q 281 927 268 938 q 290 896 293 917 l 199 38 q 184 8 197 17 q 156 0 171 0 z "},"2":{"ha":621,"x_min":-24,"x_max":589,"o":"m 17 0 q -9 10 1 0 q -22 33 -19 19 q -14 58 -24 47 q 74 163 25 104 q 172 282 122 221 q 267 398 222 343 q 344 492 311 453 q 388 547 376 532 q 440 622 415 582 q 482 701 465 663 q 499 772 499 740 q 490 810 499 793 q 463 839 482 828 q 376 857 428 857 q 253 835 318 857 q 147 778 189 814 q 97 753 117 753 q 68 764 78 753 q 56 793 57 776 q 82 833 56 810 q 214 909 135 878 q 371 940 293 940 q 436 933 404 940 q 494 911 468 926 q 566 847 543 885 q 589 764 589 810 q 558 648 589 713 q 465 506 526 583 q 416 444 449 483 q 342 357 383 406 q 258 257 301 308 q 177 160 215 206 q 113 81 139 114 l 38 0 l 17 0 m 17 0 l 46 82 l 460 82 q 494 69 485 82 q 506 42 504 57 q 499 13 507 26 q 465 0 490 0 l 17 0 z "},"3":{"ha":635,"x_min":-6,"x_max":581,"o":"m 183 -7 q 88 13 136 -7 q 18 51 40 33 q -4 83 -3 68 q 1 108 -6 97 q 26 126 11 121 q 63 115 42 131 q 115 88 88 99 q 179 78 143 78 q 288 99 232 78 q 391 158 343 119 q 469 247 439 196 q 499 357 499 297 q 485 428 499 394 q 442 482 472 461 q 361 503 413 503 q 269 489 315 503 q 174 450 222 475 l 174 535 l 344 582 q 474 551 422 582 q 553 469 526 521 q 581 353 581 418 q 544 213 581 278 q 450 98 508 147 q 322 21 392 49 q 183 -7 251 -7 m 174 450 q 133 444 150 438 q 108 463 117 450 q 103 493 101 475 q 122 521 104 511 q 231 593 172 551 q 343 679 290 635 q 429 762 396 724 q 463 824 463 800 q 442 851 463 840 q 389 861 422 861 q 278 839 343 861 q 140 765 213 817 q 108 759 125 756 q 81 775 90 763 q 74 806 72 788 q 94 839 76 825 q 242 916 169 894 q 375 938 315 938 q 461 924 424 938 q 520 885 499 910 q 544 824 542 860 q 517 740 547 785 q 433 648 486 696 q 313 550 381 600 q 174 450 246 500 z "},"4":{"ha":632,"x_min":60,"x_max":640,"o":"m 61 263 l 131 897 q 147 929 133 921 q 175 938 161 938 q 203 926 190 938 q 213 892 215 914 l 146 264 l 106 222 q 72 235 83 222 q 61 263 60 249 m 333 0 q 306 14 318 1 q 297 51 293 26 l 344 476 q 361 507 347 499 q 392 513 375 515 q 419 499 407 511 q 428 465 431 486 l 379 43 q 363 8 378 18 q 333 0 349 -1 m 640 261 q 630 234 640 246 q 600 222 619 222 l 106 222 l 106 297 l 594 297 q 627 287 614 297 q 640 261 640 276 z "},"5":{"ha":615,"x_min":35,"x_max":581,"o":"m 217 -6 q 128 8 168 -6 q 60 46 88 22 q 35 89 35 69 q 45 115 35 106 q 69 125 56 125 q 90 122 81 125 q 107 111 99 119 q 153 85 126 93 q 211 78 181 78 q 349 113 289 78 q 442 206 408 147 q 476 332 476 264 q 453 422 476 385 q 385 481 429 460 q 281 501 342 501 q 215 494 250 501 q 124 472 181 488 l 124 550 q 192 573 150 561 q 269 585 235 585 q 417 554 351 585 q 522 467 483 524 q 561 332 561 411 q 535 206 561 267 q 463 98 510 146 q 354 22 417 50 q 217 -6 292 -6 m 78 511 l 119 893 q 172 938 124 938 l 201 894 l 157 511 l 124 472 q 100 474 111 469 q 83 488 89 478 q 78 511 76 499 m 581 899 q 571 874 581 885 q 536 863 561 863 l 172 863 l 172 938 l 535 938 q 570 926 560 938 q 581 899 581 914 z "},"6":{"ha":649,"x_min":40,"x_max":565,"o":"m 44 186 q 56 353 40 269 q 106 518 71 436 q 190 679 140 600 q 240 744 210 708 q 308 817 271 781 q 381 882 344 853 q 444 928 417 911 q 476 938 464 938 q 503 928 493 938 q 517 904 514 918 q 493 863 517 882 q 351 742 407 799 q 265 639 296 686 q 181 483 214 557 q 133 338 147 410 q 125 186 119 265 l 44 186 m 249 0 q 148 26 193 0 q 76 94 103 51 q 44 186 49 136 l 85 403 q 150 494 110 454 q 246 558 190 535 q 372 582 301 582 q 518 536 471 582 q 565 403 565 490 q 539 267 565 338 q 468 135 513 196 q 367 38 424 75 q 249 0 310 0 m 240 82 q 325 113 282 82 q 404 193 368 144 q 462 297 440 242 q 483 401 483 353 q 460 475 483 450 q 376 500 438 500 q 234 458 292 500 q 149 353 176 417 q 125 222 121 289 q 165 117 131 153 q 240 82 200 82 z "},"7":{"ha":569,"x_min":8,"x_max":501,"o":"m 363 0 q 335 10 347 0 q 325 43 324 21 l 419 906 q 432 928 421 919 q 457 938 443 938 q 492 925 482 938 q 500 897 501 913 l 407 43 q 392 10 406 21 q 363 0 378 0 m 10 901 q 19 926 8 915 q 51 938 29 938 l 458 938 l 464 863 l 56 863 q 22 874 33 863 q 10 901 11 886 z "},"8":{"ha":592,"x_min":35,"x_max":563,"o":"m 263 74 q 347 100 311 74 q 401 167 382 126 q 421 246 421 207 q 402 306 421 274 q 356 370 383 338 q 298 432 328 403 q 246 483 268 461 l 221 508 q 167 565 199 531 q 110 644 135 600 q 85 739 85 689 q 106 829 85 792 q 164 891 128 867 q 244 926 200 915 q 333 938 288 938 q 416 929 375 938 q 490 905 457 921 q 542 864 522 889 q 563 806 563 839 q 538 724 563 765 q 471 641 513 682 q 381 562 429 600 q 283 489 332 524 q 184 403 221 443 q 131 321 147 363 q 115 226 115 279 q 135 153 115 189 q 188 96 154 118 q 263 74 221 74 m 257 -7 q 169 10 210 -7 q 99 57 129 26 q 51 129 68 88 q 35 219 35 171 q 51 336 35 282 q 109 442 67 390 q 231 553 151 494 q 318 622 274 585 q 401 694 363 658 q 462 760 439 731 q 485 806 485 789 q 463 831 485 821 q 405 848 440 842 q 328 854 369 854 q 255 845 292 854 q 193 813 218 836 q 168 744 168 789 q 185 676 168 707 q 227 621 203 646 q 271 576 251 596 l 319 528 q 409 433 367 483 q 478 335 451 383 q 506 246 506 288 q 488 144 506 190 q 436 63 469 97 q 357 11 403 29 q 257 -7 311 -7 z "},"9":{"ha":585,"x_min":71,"x_max":528,"o":"m 389 0 q 363 10 375 0 q 351 40 350 21 l 446 938 l 497 938 q 520 927 513 938 q 526 901 528 917 l 433 40 q 419 10 432 21 q 389 0 406 0 m 71 517 q 85 660 71 586 q 128 797 99 733 q 207 899 158 860 q 325 938 256 938 l 497 938 l 489 854 l 325 854 q 247 822 279 854 q 193 740 214 790 q 163 635 172 690 q 153 533 153 581 q 165 467 153 499 q 213 436 178 436 q 269 460 236 436 q 337 526 303 483 q 396 624 371 568 q 426 744 421 681 l 439 744 l 421 533 q 325 405 382 457 q 213 353 268 353 q 163 361 188 353 q 117 388 138 369 q 83 439 96 407 q 71 517 71 471 z "},"A":{"ha":700,"x_min":-50,"x_max":642,"o":"m -21 0 q -44 22 -39 6 q -37 67 -50 39 l 396 1033 q 415 1063 404 1053 q 446 1072 425 1072 q 478 1061 469 1072 q 489 1032 486 1050 l 439 963 l 36 40 q 13 8 28 21 q -21 0 -1 -6 m 225 543 l 256 614 l 519 614 l 533 543 l 225 543 m 604 0 q 568 13 578 -1 q 556 46 558 26 l 426 967 l 489 1032 l 639 56 q 635 18 642 33 q 604 0 628 3 z "},"B":{"ha":799,"x_min":49,"x_max":743,"o":"m 726 799 q 707 721 721 758 q 661 651 693 683 q 569 594 629 619 q 413 553 510 569 q 172 529 317 536 l 178 589 q 414 614 324 594 q 552 663 504 633 q 619 728 600 692 q 643 806 639 765 q 604 910 650 863 q 456 982 558 957 q 190 997 353 1007 l 200 1072 q 606 1010 469 1085 q 726 799 743 935 m 726 300 q 637 140 717 207 q 418 36 557 72 q 90 0 279 0 l 97 76 q 496 142 358 76 q 643 313 633 207 q 594 435 651 385 q 424 508 538 486 q 146 515 310 531 l 150 588 q 475 572 343 601 q 672 473 607 542 q 726 300 738 404 m 51 51 l 153 1028 q 167 1061 156 1051 q 200 1072 179 1071 l 236 1021 l 133 47 l 90 0 q 60 15 72 0 q 51 51 49 31 z "},"C":{"ha":788,"x_min":53,"x_max":768,"o":"m 349 -7 q 162 60 232 -7 q 72 255 92 128 q 88 561 53 382 q 169 821 115 706 q 305 1003 222 936 q 501 1071 388 1071 q 613 1058 567 1071 q 691 1024 658 1044 q 746 982 724 1003 q 763 956 757 972 q 753 919 768 939 q 717 906 736 901 q 685 919 697 910 q 613 965 658 939 q 507 990 567 990 q 346 933 413 990 q 236 778 279 876 q 169 551 193 679 q 175 189 126 308 q 342 69 224 69 q 460 97 408 69 q 549 165 513 124 q 607 246 586 206 q 637 286 621 274 q 674 288 653 299 q 694 258 694 276 q 676 207 693 239 q 602 106 651 156 q 488 25 553 57 q 349 -7 424 -7 z "},"D":{"ha":807,"x_min":49,"x_max":763,"o":"m 744 561 q 658 260 725 386 q 477 67 592 135 q 199 0 363 0 l 93 0 l 103 76 l 193 76 q 522 203 408 76 q 664 568 636 331 q 639 790 678 693 q 515 942 600 888 q 307 997 431 997 l 193 997 l 203 1072 l 296 1072 q 558 1008 451 1072 q 713 830 664 944 q 744 561 763 715 m 51 44 l 156 1028 q 167 1060 158 1047 q 203 1072 176 1072 l 238 1021 l 133 42 l 93 0 q 60 13 71 0 q 51 44 49 26 z "},"E":{"ha":757,"x_min":49,"x_max":761,"o":"m 51 44 l 156 1028 q 167 1060 158 1047 q 203 1072 176 1072 l 238 1021 l 133 42 l 93 0 q 60 13 71 0 q 51 44 49 26 m 656 40 q 645 13 656 25 q 611 0 635 0 l 93 0 l 100 76 l 611 76 q 645 66 635 76 q 656 40 656 56 m 675 578 q 663 551 675 564 q 625 539 650 539 l 147 539 l 156 615 l 629 615 q 664 604 653 615 q 675 578 675 593 m 761 1035 q 751 1009 761 1021 q 717 997 740 997 l 193 997 l 203 1072 l 717 1072 q 751 1061 740 1072 q 761 1035 761 1050 z "},"F":{"ha":719,"x_min":49,"x_max":761,"o":"m 93 0 q 60 13 71 0 q 51 44 49 26 l 156 1028 q 167 1060 158 1047 q 203 1072 176 1072 l 238 1021 l 133 42 q 126 15 132 29 q 93 0 121 0 m 660 578 q 649 551 660 564 q 614 539 639 539 l 149 539 l 158 615 l 614 615 q 649 604 639 615 q 660 578 660 593 m 761 1035 q 751 1009 761 1021 q 717 997 740 997 l 194 997 l 203 1072 l 717 1072 q 751 1061 740 1072 q 761 1035 761 1050 z "},"G":{"ha":851,"x_min":54,"x_max":797,"o":"m 308 -7 q 151 67 211 -7 q 72 269 90 140 q 85 563 54 399 q 140 751 103 660 q 235 915 178 842 q 367 1030 292 988 q 533 1072 442 1072 q 640 1055 590 1072 q 726 1010 689 1038 q 785 956 764 983 q 797 921 797 939 q 781 889 796 903 q 751 878 767 876 q 721 894 735 881 q 674 937 703 914 q 607 976 646 960 q 521 993 568 993 q 394 956 453 993 q 289 857 335 919 q 211 715 243 794 q 165 551 179 636 q 154 303 143 413 q 208 132 165 194 q 324 69 251 69 q 425 104 379 69 q 512 201 471 139 q 594 350 553 264 q 678 539 635 436 q 685 554 682 547 q 692 567 688 561 q 704 575 697 572 q 721 578 711 578 l 721 476 q 631 256 678 347 q 534 106 585 164 q 427 20 483 47 q 308 -7 371 -7 m 669 0 q 640 17 646 1 q 635 60 633 33 l 685 533 l 721 578 q 756 566 742 578 q 767 533 769 554 l 718 60 q 707 17 715 35 q 669 0 699 -1 z "},"H":{"ha":853,"x_min":49,"x_max":796,"o":"m 93 0 q 60 13 71 0 q 51 44 49 26 l 156 1028 q 169 1060 158 1047 q 203 1072 181 1072 q 232 1058 224 1072 q 238 1021 240 1044 l 133 42 q 126 15 132 29 q 93 0 121 0 m 151 539 l 160 615 l 703 615 l 694 539 l 151 539 m 647 0 q 611 15 618 0 q 606 44 604 31 l 711 1036 q 722 1060 713 1049 q 753 1072 731 1072 q 786 1059 776 1072 q 793 1025 796 1046 l 688 36 q 678 13 686 25 q 647 0 671 0 z "},"I":{"ha":363,"x_min":82,"x_max":274,"o":"m 125 0 q 92 13 103 0 q 85 44 82 26 l 188 1028 q 201 1060 190 1047 q 236 1072 211 1072 q 267 1058 261 1072 q 271 1021 274 1044 l 167 42 q 159 15 165 29 q 125 0 153 0 z "},"J":{"ha":600,"x_min":-22,"x_max":542,"o":"m -8 169 q 22 180 6 183 q 53 158 39 176 q 90 119 69 138 q 135 88 110 100 q 196 76 161 76 q 289 102 250 76 q 352 185 328 128 q 386 339 376 243 l 457 1035 q 469 1067 460 1054 q 503 1079 479 1079 q 535 1065 528 1079 q 539 1028 542 1051 l 468 339 q 385 78 450 156 q 196 0 321 0 q 114 14 151 0 q 47 52 76 28 q -8 107 17 76 q -21 139 -19 122 q -8 169 -22 156 z "},"K":{"ha":743,"x_min":51,"x_max":796,"o":"m 761 1072 q 786 1062 776 1072 q 796 1036 796 1051 q 787 1014 794 1025 q 765 990 779 1003 l 282 568 l 188 574 l 186 594 l 710 1051 q 761 1072 736 1075 m 651 0 q 623 10 636 0 q 600 32 610 19 l 188 569 l 186 588 l 281 585 l 675 69 q 688 47 685 57 q 688 28 690 38 q 675 7 686 14 q 651 0 664 0 m 94 0 q 62 17 72 0 q 53 53 51 35 l 157 1028 q 170 1060 160 1047 q 204 1072 181 1072 q 235 1058 228 1072 q 239 1021 242 1044 l 135 51 q 127 17 133 35 q 94 0 121 0 z "},"L":{"ha":675,"x_min":49,"x_max":632,"o":"m 51 44 l 156 1028 q 168 1060 158 1047 q 203 1072 178 1072 q 234 1058 228 1072 q 238 1021 240 1044 l 133 42 l 93 0 q 60 13 71 0 q 51 44 49 26 m 632 43 q 622 13 632 26 q 589 0 613 0 l 93 0 l 100 82 l 588 82 q 621 72 610 82 q 632 43 632 61 z "},"M":{"ha":1269,"x_min":49,"x_max":1213,"o":"m 533 32 l 194 936 l 203 1072 q 231 1062 222 1072 q 247 1029 240 1051 l 590 111 l 578 0 q 549 10 560 0 q 533 32 538 19 m 93 0 q 60 13 71 0 q 51 44 49 26 l 156 1028 q 203 1072 160 1072 l 236 1010 l 133 46 q 126 16 132 32 q 93 0 121 0 m 1063 0 q 1031 15 1040 0 q 1024 44 1022 31 l 1117 939 l 1176 1072 q 1206 1058 1199 1072 q 1210 1021 1213 1044 l 1106 42 q 1097 15 1104 29 q 1063 0 1090 0 m 615 29 q 601 9 608 18 q 578 0 594 0 l 565 103 l 1132 1046 q 1149 1066 1140 1060 q 1176 1072 1157 1072 l 1168 954 l 615 29 z "},"N":{"ha":964,"x_min":49,"x_max":907,"o":"m 717 29 l 196 981 l 201 1072 q 235 1063 224 1072 q 254 1039 247 1054 l 765 111 l 763 0 q 735 8 746 0 q 717 29 724 15 m 93 0 q 60 13 71 0 q 51 44 49 26 l 156 1028 q 167 1060 158 1047 q 201 1072 175 1072 l 236 1010 l 133 46 q 126 16 132 32 q 93 0 121 0 m 869 1072 q 900 1058 893 1072 q 904 1021 907 1044 l 800 42 q 792 11 799 22 q 763 0 785 0 l 721 79 l 822 1028 q 835 1060 825 1047 q 869 1072 844 1072 z "},"O":{"ha":819,"x_min":97,"x_max":768,"o":"m 289 -7 q 201 31 238 -7 q 141 133 164 68 q 108 281 118 197 q 97 454 97 364 q 119 674 97 564 q 188 874 142 783 q 305 1018 233 964 q 475 1072 376 1072 q 642 1022 575 1072 q 738 892 708 972 q 757 718 768 811 q 722 524 747 625 q 655 329 696 424 q 559 158 614 235 q 436 38 504 82 q 289 -7 368 -7 m 282 69 q 404 112 347 69 q 508 224 461 154 q 588 377 554 293 q 644 546 622 461 q 674 701 667 631 q 637 915 688 832 q 467 997 586 997 q 338 949 392 997 q 251 822 285 901 q 199 647 217 742 q 179 456 182 551 q 183 310 178 379 q 203 186 189 240 q 237 101 217 132 q 282 69 257 69 z "},"P":{"ha":718,"x_min":49,"x_max":751,"o":"m 740 779 q 701 662 733 711 q 613 578 668 613 q 486 523 558 543 q 328 494 414 503 q 146 485 242 485 l 151 560 q 349 571 260 560 q 506 608 439 582 q 612 678 572 635 q 658 788 651 722 q 614 905 665 854 q 458 981 563 956 q 199 997 353 1007 l 203 1072 q 498 1049 374 1082 q 687 948 622 1017 q 740 779 751 879 m 93 -7 q 60 10 71 -7 q 51 44 49 26 l 156 1028 q 168 1060 158 1049 q 203 1072 178 1072 l 238 1021 l 133 42 q 126 11 132 29 q 93 -7 121 -7 z "},"Q":{"ha":819,"x_min":97,"x_max":765,"o":"m 622 -68 q 589 -76 610 -81 q 551 -56 568 -72 l 328 157 q 302 195 307 176 q 310 228 297 214 q 345 238 322 243 q 388 214 368 233 l 611 1 q 632 -36 628 -15 q 622 -68 636 -57 m 289 -7 q 201 31 238 -7 q 141 133 164 68 q 108 281 118 197 q 97 454 97 364 q 119 674 97 564 q 188 874 142 783 q 305 1018 233 964 q 475 1072 376 1072 q 606 1044 550 1072 q 699 965 663 1015 q 750 851 735 915 q 757 718 765 788 q 720 524 747 625 q 651 329 693 424 q 554 158 610 235 q 432 38 499 82 q 289 -7 365 -7 m 282 69 q 410 112 351 69 q 514 224 468 154 q 592 377 560 293 q 646 546 625 461 q 674 701 667 631 q 664 856 683 789 q 596 960 644 922 q 467 997 547 997 q 338 949 392 997 q 251 822 285 901 q 199 647 217 742 q 179 456 182 551 q 183 310 178 379 q 203 186 189 240 q 237 101 217 132 q 282 69 257 69 z "},"R":{"ha":769,"x_min":51,"x_max":735,"o":"m 726 801 q 675 682 721 736 q 551 588 629 628 q 369 526 472 549 q 146 501 267 504 l 151 574 q 395 607 286 575 q 570 692 504 639 q 643 810 636 746 q 605 920 651 875 q 460 986 558 965 q 214 997 363 1007 l 203 1072 q 499 1053 379 1081 q 676 964 618 1026 q 726 801 735 901 m 603 0 q 578 8 593 0 q 551 32 564 15 l 158 539 l 254 551 l 619 82 q 638 49 635 63 q 639 25 642 35 q 626 8 636 15 q 603 0 615 0 m 93 0 q 61 17 71 0 q 53 54 51 33 l 156 1028 q 167 1060 158 1047 q 203 1072 176 1072 l 238 1021 l 135 51 q 127 17 133 33 q 93 0 121 0 z "},"S":{"ha":694,"x_min":19,"x_max":669,"o":"m 253 -7 q 104 32 168 -7 q 25 135 40 71 q 24 172 19 154 q 46 194 28 189 q 80 192 64 200 q 100 164 96 185 q 156 97 111 125 q 279 69 201 69 q 390 92 338 69 q 480 160 443 114 q 524 279 517 207 q 483 424 531 361 q 325 550 435 488 q 233 610 276 578 q 158 679 190 642 q 110 759 126 717 q 99 851 94 801 q 144 965 106 913 q 255 1048 183 1017 q 432 1079 326 1079 q 585 1039 529 1079 q 661 940 642 999 q 666 901 669 918 q 646 878 663 883 q 614 879 629 872 q 592 903 599 886 q 538 975 576 947 q 436 1003 499 1003 q 251 959 318 1003 q 178 844 185 915 q 198 759 174 799 q 272 683 222 719 q 388 608 321 647 q 506 522 454 571 q 585 410 558 472 q 604 267 613 347 q 568 146 597 197 q 493 60 539 94 q 386 10 447 26 q 253 -7 325 -7 z "},"T":{"ha":608,"x_min":29,"x_max":667,"o":"m 240 0 q 210 18 218 0 q 204 61 203 36 l 307 1029 l 389 1029 l 288 56 q 275 18 285 36 q 240 0 265 0 m 29 1032 q 38 1060 29 1047 q 71 1072 46 1072 l 622 1072 q 657 1060 647 1072 q 667 1032 667 1047 q 659 1003 667 1017 q 626 990 651 990 l 76 990 q 40 1003 51 990 q 29 1032 29 1017 z "},"U":{"ha":840,"x_min":46,"x_max":783,"o":"m 196 -7 q 84 67 122 -7 q 64 301 46 140 l 146 1024 q 160 1058 149 1043 q 192 1072 172 1072 q 222 1056 211 1072 q 229 1021 232 1040 l 147 297 q 139 192 142 244 q 149 104 136 139 q 201 69 163 69 q 260 94 222 69 q 344 167 297 119 q 442 285 392 215 q 540 442 493 354 q 623 635 586 531 q 679 861 660 740 l 699 858 l 683 621 q 566 358 631 474 q 435 160 501 242 q 306 36 368 79 q 196 -7 244 -7 m 633 -1 q 603 10 617 -1 q 592 44 590 22 l 699 1033 q 708 1060 700 1049 q 739 1072 717 1072 q 773 1060 763 1072 q 781 1029 783 1049 l 675 36 q 661 8 674 18 q 633 -1 649 -1 z "},"V":{"ha":740,"x_min":100,"x_max":749,"o":"m 346 42 q 331 12 339 24 q 300 0 324 0 l 275 64 l 354 282 l 653 1032 q 674 1063 663 1053 q 710 1072 686 1072 q 739 1058 729 1072 q 738 1019 749 1044 l 346 42 m 253 46 l 103 1029 q 108 1060 100 1049 q 139 1072 117 1072 q 175 1059 167 1072 q 185 1033 183 1046 l 300 279 l 326 61 l 300 0 q 267 15 278 0 q 253 46 256 31 z "},"W":{"ha":1301,"x_min":100,"x_max":1310,"o":"m 906 42 q 890 12 899 24 q 858 0 882 0 l 863 113 l 928 310 l 1214 1032 q 1235 1064 1225 1056 q 1267 1072 1244 1072 q 1297 1059 1285 1072 q 1299 1019 1310 1046 l 906 42 m 253 46 l 103 1029 q 108 1060 100 1049 q 139 1072 117 1072 q 175 1059 167 1072 q 185 1033 183 1046 l 292 313 l 315 104 l 299 0 q 268 13 281 0 q 253 46 256 26 m 346 43 q 333 15 342 29 q 299 0 324 0 l 299 107 l 368 313 l 649 1033 q 665 1060 654 1047 q 696 1072 676 1072 l 696 974 l 650 817 l 346 43 m 814 42 l 699 811 l 679 982 l 696 1072 q 735 1060 726 1072 q 746 1033 744 1047 l 853 317 l 872 107 l 858 0 q 827 13 838 0 q 814 42 817 26 z "},"X":{"ha":722,"x_min":-19,"x_max":728,"o":"m -1 10 q -17 33 -14 18 q -10 63 -19 49 l 331 579 l 342 581 l 647 1051 q 667 1069 656 1064 q 692 1072 679 1074 q 713 1064 704 1071 q 726 1040 724 1056 q 717 1004 728 1024 l 385 497 l 375 497 l 61 21 q 42 4 53 10 q 19 1 31 -1 q -1 10 8 3 m 603 6 q 579 1 592 0 q 556 9 567 1 q 538 33 544 17 l 325 508 l 99 1013 q 92 1051 89 1036 q 111 1071 96 1065 q 146 1072 125 1078 q 176 1042 167 1065 l 388 569 l 617 58 q 620 26 626 40 q 603 6 614 13 z "},"Y":{"ha":806,"x_min":97,"x_max":801,"o":"m 125 1072 q 163 1068 149 1082 q 183 1039 178 1054 l 440 479 l 386 397 l 106 1011 q 101 1048 97 1031 q 125 1072 104 1065 m 149 10 q 135 33 136 18 q 142 63 133 49 l 719 1047 q 745 1071 731 1067 q 774 1068 760 1075 q 797 1041 793 1058 q 790 1004 801 1024 l 211 19 q 192 2 204 7 q 169 0 181 -3 q 149 10 158 3 z "},"Z":{"ha":740,"x_min":1,"x_max":746,"o":"m 11 64 l 672 1050 l 701 1072 q 728 1063 717 1072 q 742 1039 739 1054 q 735 1004 746 1024 l 78 21 l 47 0 q 17 10 29 0 q 3 35 6 19 q 11 64 1 50 m 639 42 q 632 13 640 26 q 599 0 624 0 l 47 0 l 76 82 l 594 82 q 628 69 618 82 q 639 42 638 57 m 107 1032 q 115 1060 106 1047 q 149 1072 124 1072 l 701 1072 l 672 990 l 153 990 q 119 1003 129 990 q 107 1032 108 1017 z "},"a":{"ha":551,"x_min":17,"x_max":468,"o":"m 147 -7 q 86 10 117 -7 q 36 73 56 28 q 17 200 17 118 q 32 321 17 256 q 78 444 47 386 q 155 540 108 503 q 265 578 201 578 l 418 578 l 410 494 l 271 494 q 194 464 226 494 q 140 388 161 433 q 109 293 119 342 q 99 208 99 244 q 113 102 99 128 q 160 76 126 76 q 220 105 185 76 q 299 197 256 133 q 385 369 342 261 l 369 186 q 269 50 325 107 q 147 -7 214 -7 m 369 0 q 337 15 343 0 q 332 44 331 31 l 389 578 l 439 578 q 459 563 450 578 q 467 533 468 549 l 414 51 q 407 17 413 35 q 369 0 401 0 z "},"b":{"ha":547,"x_min":14,"x_max":467,"o":"m 15 36 l 122 1025 q 140 1061 125 1050 q 169 1072 154 1072 q 196 1060 185 1072 q 204 1025 207 1049 l 96 0 l 44 0 q 22 11 31 0 q 15 36 14 22 m 467 376 q 451 256 467 321 q 406 132 436 190 q 328 37 375 74 q 218 0 282 0 l 60 0 l 68 82 l 213 82 q 290 113 257 82 q 343 189 322 143 q 374 283 364 235 q 385 368 385 332 q 371 474 385 449 q 324 500 357 500 q 263 469 300 500 q 183 372 226 439 q 96 196 140 304 l 114 379 q 178 481 143 435 q 252 554 213 526 q 336 582 292 582 q 398 565 368 582 q 447 504 428 549 q 467 376 467 460 z "},"c":{"ha":472,"x_min":17,"x_max":431,"o":"m 158 -7 q 92 8 125 -7 q 38 60 58 24 q 17 157 17 96 q 31 300 17 226 q 74 437 44 374 q 153 539 104 500 q 271 578 201 578 q 342 572 304 578 q 404 561 381 567 q 426 543 422 557 q 422 510 431 529 q 395 486 413 489 q 363 485 378 483 q 320 491 347 488 q 271 494 293 494 q 193 463 225 494 q 141 381 161 431 q 111 276 121 331 q 100 174 101 221 q 111 108 99 139 q 158 76 124 76 q 208 101 179 76 q 267 166 236 125 q 322 254 297 207 q 347 267 329 268 q 375 261 365 265 q 392 242 383 256 q 394 217 401 229 q 326 107 365 158 q 245 24 288 56 q 158 -7 203 -7 z "},"d":{"ha":561,"x_min":17,"x_max":522,"o":"m 372 0 q 342 11 356 0 q 332 44 329 22 l 438 1038 q 453 1065 440 1057 q 479 1072 465 1072 q 509 1060 496 1072 q 519 1029 522 1049 l 414 36 q 400 9 413 18 q 372 0 388 0 m 17 200 q 32 321 17 256 q 78 444 47 386 q 155 540 108 503 q 265 578 201 578 l 424 578 l 415 494 l 271 494 q 194 464 226 494 q 140 388 161 433 q 109 293 119 342 q 99 208 99 244 q 113 102 99 128 q 160 76 126 76 q 220 105 185 76 q 299 199 256 133 q 385 371 342 264 l 369 190 q 306 92 340 138 q 231 20 271 47 q 147 -7 192 -7 q 86 10 117 -7 q 36 73 56 28 q 17 200 17 118 z "},"e":{"ha":497,"x_min":18,"x_max":446,"o":"m 151 -7 q 90 9 121 -7 q 38 65 58 25 q 21 176 18 104 q 40 321 24 250 q 88 450 56 392 q 169 543 119 508 q 292 578 219 578 q 401 551 356 578 q 440 474 446 525 q 401 392 436 433 q 313 317 367 351 q 199 260 260 282 q 81 239 138 239 l 94 319 q 179 338 135 319 q 264 383 224 357 q 330 434 304 410 q 357 468 356 458 q 344 487 358 479 q 307 494 329 494 q 208 465 247 494 q 147 387 169 436 q 115 278 125 338 q 104 161 106 219 q 119 101 103 126 q 157 76 135 76 q 217 97 188 76 q 269 143 246 117 q 306 186 293 169 q 339 210 321 207 q 371 203 357 214 q 381 172 385 193 q 354 115 378 151 q 308 62 339 90 q 236 13 276 33 q 151 -7 196 -7 z "},"f":{"ha":369,"x_min":-42,"x_max":454,"o":"m 108 0 q 76 16 86 0 q 67 46 65 32 l 153 869 q 188 988 161 943 q 254 1052 215 1032 q 333 1072 293 1072 q 380 1069 357 1072 q 424 1060 403 1067 q 444 1043 435 1056 q 446 1008 454 1031 q 419 983 436 985 q 392 983 401 982 q 366 989 379 988 q 339 990 353 990 q 269 960 297 990 q 235 854 242 929 l 149 44 q 139 15 147 31 q 108 0 131 0 m -42 542 q -33 567 -42 557 q 0 578 -25 578 l 322 578 q 356 567 346 578 q 367 542 367 557 q 359 515 367 526 q 326 503 351 503 l 6 503 q -31 515 -19 503 q -42 542 -42 526 z "},"g":{"ha":553,"x_min":-51,"x_max":471,"o":"m 17 200 q 32 321 17 256 q 78 444 47 386 q 155 540 108 503 q 265 578 201 578 l 415 578 l 407 494 l 271 494 q 194 464 226 494 q 140 388 161 433 q 109 293 119 342 q 99 208 99 244 q 113 102 99 128 q 160 76 126 76 q 222 112 185 76 q 302 219 258 147 q 389 397 346 290 l 371 204 q 307 103 342 151 q 232 24 272 54 q 147 -7 192 -7 q 101 2 124 -7 q 58 34 78 11 q 28 97 39 57 q 17 200 17 138 m -40 -396 q -12 -381 -28 -381 q 11 -385 3 -381 q 56 -403 31 -393 q 106 -412 82 -412 q 183 -403 147 -412 q 240 -369 218 -393 q 292 -275 278 -333 q 313 -157 307 -217 l 389 578 l 426 578 q 459 568 447 578 q 468 538 471 558 l 394 -157 q 376 -270 388 -218 q 347 -363 365 -322 q 297 -433 328 -404 q 221 -479 267 -464 q 113 -494 175 -494 q 29 -481 68 -494 q -33 -453 -10 -468 q -49 -426 -47 -442 q -40 -396 -51 -410 z "},"h":{"ha":561,"x_min":13,"x_max":472,"o":"m 385 0 q 352 16 358 0 q 349 51 346 32 l 385 386 q 376 468 390 433 q 333 503 361 503 q 264 477 299 503 q 190 388 229 451 q 100 211 150 324 l 113 393 q 218 533 165 482 q 339 585 271 585 q 416 555 386 585 q 459 479 446 525 q 467 386 472 433 l 429 51 q 422 17 428 35 q 385 0 417 0 m 53 0 q 25 10 38 0 q 15 38 13 19 l 121 1028 q 138 1062 124 1051 q 168 1072 153 1072 q 195 1062 185 1072 q 203 1028 206 1051 l 97 38 q 82 9 96 18 q 53 0 68 0 z "},"i":{"ha":263,"x_min":26,"x_max":192,"o":"m 67 0 q 38 12 50 0 q 28 46 26 24 l 79 533 q 96 567 82 556 q 125 578 110 578 q 152 565 140 578 q 161 528 164 553 l 111 46 q 95 12 108 24 q 67 0 82 0 m 138 703 q 98 721 115 703 q 81 761 81 739 q 98 801 81 785 q 138 817 115 817 q 176 801 160 817 q 192 761 192 785 q 176 721 192 739 q 138 703 160 703 z "},"j":{"ha":283,"x_min":-337,"x_max":213,"o":"m -326 -396 q -308 -383 -318 -386 q -290 -381 -299 -379 q -275 -385 -281 -382 q -231 -403 -257 -393 q -182 -412 -204 -412 q -103 -404 -139 -412 q -44 -372 -67 -396 q -13 -326 -25 -354 q 6 -267 -1 -299 q 18 -206 14 -236 q 25 -156 22 -176 l 97 543 q 110 568 99 557 q 135 579 121 579 q 169 570 157 579 q 179 539 182 561 l 107 -156 q 97 -233 103 -193 q 80 -309 90 -272 q 52 -378 69 -346 q 10 -433 35 -410 q -66 -479 -21 -464 q -175 -494 -111 -494 q -258 -481 -219 -494 q -319 -453 -297 -468 q -333 -436 -329 -446 q -336 -416 -337 -426 q -326 -396 -335 -406 m 160 703 q 120 720 138 703 q 103 763 103 738 q 120 801 103 786 q 160 817 138 817 q 198 801 183 817 q 213 763 213 786 q 198 720 213 738 q 160 703 183 703 z "},"k":{"ha":519,"x_min":13,"x_max":465,"o":"m 51 0 q 24 12 35 0 q 15 43 13 24 l 121 1026 q 133 1060 124 1047 q 161 1072 143 1072 q 193 1062 181 1072 q 203 1025 206 1051 l 97 43 q 83 10 96 19 q 51 0 71 0 m 393 -1 q 365 8 376 -1 q 342 29 353 18 l 146 239 q 135 265 136 250 q 139 292 133 279 q 153 307 144 304 q 301 364 254 339 q 363 411 349 389 q 376 454 376 433 q 365 486 376 469 q 331 503 354 503 q 288 489 313 503 q 232 447 263 475 q 166 375 201 418 q 93 274 131 332 l 107 404 q 195 509 151 469 q 277 567 239 549 q 342 585 315 585 q 409 563 381 585 q 451 506 438 540 q 458 433 465 472 q 433 380 454 413 q 360 312 413 347 q 207 247 307 276 l 213 289 l 419 69 q 431 46 431 57 q 429 26 431 35 q 417 6 428 13 q 393 -1 406 -1 z "},"l":{"ha":286,"x_min":38,"x_max":231,"o":"m 82 0 q 51 11 65 0 q 40 44 38 22 l 146 1038 q 160 1065 149 1057 q 185 1072 171 1072 q 217 1060 203 1072 q 228 1029 231 1049 l 122 36 q 108 9 121 18 q 82 0 96 0 z "},"m":{"ha":850,"x_min":15,"x_max":761,"o":"m 54 0 q 22 16 28 0 q 17 50 15 32 l 68 533 q 84 567 71 557 q 121 578 97 578 q 147 566 142 578 q 150 533 153 554 l 97 50 q 90 17 96 35 q 54 0 83 0 m 363 0 q 331 16 336 0 q 326 50 325 32 l 363 386 q 363 435 365 408 q 349 483 360 463 q 317 503 338 503 q 249 471 282 503 q 177 370 215 439 q 88 188 139 301 l 103 388 q 169 490 136 446 q 240 560 203 535 q 322 585 276 585 q 399 555 371 585 q 440 479 428 525 q 446 386 451 433 l 407 50 q 399 17 406 35 q 363 0 392 0 m 674 0 q 641 16 647 0 q 638 50 635 32 l 674 386 q 673 435 676 408 q 658 483 669 463 q 626 503 647 503 q 525 430 575 503 q 397 188 475 357 l 413 388 q 480 490 447 446 q 550 560 513 535 q 632 585 588 585 q 709 555 681 585 q 749 479 738 525 q 756 386 761 433 l 718 50 q 710 17 717 35 q 674 0 703 0 z "},"n":{"ha":551,"x_min":11,"x_max":463,"o":"m 51 0 q 18 16 25 0 q 14 51 11 32 l 68 533 q 83 567 71 556 q 121 578 96 578 q 147 566 142 578 q 150 533 153 554 l 94 51 q 88 17 92 35 q 51 0 83 0 m 371 0 q 339 16 344 0 q 335 51 333 32 l 375 386 q 373 435 378 408 q 356 483 368 463 q 324 503 344 503 q 219 431 272 503 q 88 188 165 358 l 104 372 q 206 528 151 471 q 328 585 260 585 q 407 555 376 585 q 450 479 438 525 q 457 386 463 433 l 415 51 q 408 17 414 35 q 371 0 403 0 z "},"o":{"ha":518,"x_min":17,"x_max":463,"o":"m 158 -7 q 92 8 125 -7 q 38 60 58 24 q 17 157 17 96 q 31 300 17 226 q 74 437 44 374 q 153 539 104 500 q 271 578 201 578 q 372 556 329 578 q 439 497 415 535 q 457 410 463 460 q 433 310 451 365 q 385 199 414 254 q 319 97 356 143 q 241 22 282 50 q 158 -7 200 -7 m 158 76 q 215 108 182 76 q 283 190 249 140 q 342 298 317 240 q 372 407 367 356 q 351 472 378 450 q 271 494 325 494 q 193 463 225 494 q 141 381 161 431 q 111 276 121 331 q 100 174 101 221 q 111 108 99 139 q 158 76 124 76 z "},"p":{"ha":536,"x_min":-39,"x_max":467,"o":"m 3 -494 q -26 -485 -12 -494 q -36 -456 -39 -475 l 71 539 q 88 568 74 558 q 117 578 103 578 q 144 568 133 578 q 153 539 156 558 l 46 -457 q 31 -485 44 -475 q 3 -494 18 -494 m 467 376 q 438 194 467 281 q 353 54 408 108 q 218 0 297 0 l 54 0 l 63 82 l 213 82 q 287 106 254 82 q 341 169 319 129 q 374 260 363 208 q 385 368 385 313 q 371 476 385 449 q 324 503 357 503 q 222 435 281 503 q 99 204 164 367 l 115 396 q 180 491 146 449 q 253 558 214 533 q 336 582 292 582 q 398 565 368 582 q 447 504 428 549 q 467 376 467 460 z "},"q":{"ha":554,"x_min":17,"x_max":551,"o":"m 525 -307 q 544 -326 538 -312 q 544 -360 551 -340 q 519 -414 538 -382 q 472 -470 500 -446 q 404 -494 443 -494 q 315 -447 344 -494 q 297 -299 286 -399 l 394 578 l 431 578 q 465 564 458 578 q 468 539 471 550 l 379 -315 q 378 -387 374 -358 q 407 -415 383 -415 q 440 -393 426 -415 q 474 -324 454 -371 q 496 -303 481 -306 q 525 -307 511 -300 m 17 200 q 32 321 17 256 q 78 444 47 386 q 155 540 108 503 q 265 578 201 578 l 401 578 l 393 494 l 271 494 q 194 464 226 494 q 140 388 161 433 q 109 293 119 342 q 99 208 99 244 q 113 102 99 128 q 160 76 126 76 q 259 150 196 76 q 388 386 322 224 l 371 201 q 307 101 342 149 q 232 23 272 53 q 147 -7 192 -7 q 86 10 117 -7 q 36 73 56 28 q 17 200 17 118 z "},"r":{"ha":468,"x_min":11,"x_max":453,"o":"m 51 0 q 23 11 35 0 q 14 44 11 22 l 64 533 q 81 567 67 556 q 111 578 96 578 q 138 565 126 578 q 147 528 150 553 l 96 44 q 81 11 94 22 q 51 0 67 0 m 422 418 q 390 414 408 410 q 369 432 372 418 q 353 481 364 460 q 319 503 342 503 q 215 430 268 503 q 85 188 161 357 l 100 369 q 169 488 135 440 q 242 560 203 536 q 325 585 281 585 q 406 552 375 585 q 447 474 436 519 q 444 438 453 450 q 422 418 436 425 z "},"s":{"ha":489,"x_min":4,"x_max":425,"o":"m 222 -7 q 120 15 169 -7 q 46 56 71 38 q 15 88 25 72 q 17 122 4 104 q 45 144 29 142 q 79 133 61 147 q 140 98 99 119 q 226 76 181 76 q 279 89 257 76 q 308 132 301 101 q 301 183 315 160 q 269 219 286 206 q 219 253 247 238 q 157 290 192 269 q 91 343 119 314 q 51 406 63 372 q 51 476 40 440 q 114 556 67 533 q 229 579 161 579 q 301 568 263 579 q 381 532 340 557 q 415 494 404 517 q 414 456 425 471 q 385 440 403 438 q 349 456 368 442 q 294 485 326 471 q 218 499 261 499 q 163 490 188 499 q 131 456 138 481 q 142 408 124 431 q 208 357 161 385 q 274 316 240 339 q 339 267 308 293 q 381 210 363 247 q 389 121 399 174 q 358 51 383 79 q 298 8 333 22 q 222 -7 263 -7 z "},"t":{"ha":428,"x_min":-6,"x_max":432,"o":"m 150 0 q 121 10 135 0 q 108 40 107 21 l 218 1042 q 232 1067 221 1058 q 257 1076 243 1076 q 289 1065 275 1076 q 300 1029 303 1053 l 192 38 q 178 9 189 18 q 150 0 167 0 m -6 542 q 3 567 -6 557 q 36 578 11 578 l 388 578 q 422 567 413 578 q 432 542 432 557 q 425 515 432 526 q 393 503 418 503 l 42 503 q 6 515 17 503 q -6 542 -6 526 z "},"u":{"ha":561,"x_min":21,"x_max":471,"o":"m 367 0 q 340 12 346 0 q 335 44 333 24 l 388 533 q 397 563 389 547 q 432 578 406 578 q 465 563 458 578 q 468 529 471 547 l 418 44 q 403 11 415 22 q 367 0 390 0 m 156 -7 q 77 20 108 -7 q 33 93 46 47 q 26 192 21 139 l 67 533 q 75 563 68 547 q 108 578 82 578 q 142 563 136 578 q 146 529 149 547 l 108 192 q 117 108 104 142 q 160 74 129 74 q 230 103 194 74 q 307 199 265 132 q 399 379 349 267 l 385 199 q 315 94 350 140 q 240 20 279 47 q 156 -7 201 -7 z "},"v":{"ha":503,"x_min":25,"x_max":481,"o":"m 121 -7 q 65 19 86 -7 q 34 85 43 44 q 29 168 25 125 l 68 538 q 84 567 71 557 q 115 578 97 578 q 142 567 132 578 q 150 533 153 557 l 113 168 q 112 119 110 140 q 120 88 114 99 q 135 78 126 78 q 208 131 164 78 q 301 286 253 185 q 392 532 350 388 q 410 567 397 556 q 444 578 422 578 q 474 562 468 578 q 474 518 481 546 q 355 202 418 317 q 231 40 292 88 q 121 -7 171 -7 z "},"w":{"ha":831,"x_min":25,"x_max":807,"o":"m 121 -7 q 64 19 86 -7 q 33 85 42 44 q 29 168 25 125 l 68 533 q 86 567 71 556 q 115 578 101 578 q 142 565 132 578 q 150 528 153 553 l 113 168 q 109 128 111 150 q 113 92 107 107 q 135 78 118 78 q 188 106 158 78 q 251 190 217 133 q 322 331 285 246 q 394 532 358 417 q 410 563 400 549 q 442 578 419 578 l 406 354 q 263 77 332 161 q 121 -7 194 -7 m 447 -7 q 375 43 396 -7 q 365 168 354 93 l 393 357 l 442 578 q 467 565 458 578 q 474 528 476 553 l 439 168 q 436 128 438 150 q 440 92 435 107 q 463 78 446 78 q 513 103 483 78 q 578 183 543 129 q 650 324 614 238 q 718 532 686 411 q 737 566 725 554 q 771 578 749 578 q 801 562 796 578 q 800 518 807 546 q 708 257 754 360 q 615 97 661 154 q 527 16 569 39 q 447 -7 485 -7 z "},"x":{"ha":472,"x_min":-37,"x_max":431,"o":"m 7 0 q -22 11 -7 0 q -37 36 -37 22 q -33 53 -37 44 q -15 81 -29 63 l 168 326 l 183 335 l 350 558 q 368 574 358 569 q 386 578 378 578 q 416 568 401 578 q 431 544 431 558 q 411 501 431 528 l 229 261 l 214 253 l 46 29 q 7 0 25 0 m 325 0 q 306 8 315 0 q 286 35 297 15 l 165 256 l 28 510 q 21 524 25 517 q 17 539 17 532 q 31 566 17 554 q 60 578 46 578 q 83 569 72 578 q 100 550 93 561 l 222 322 l 353 81 q 364 59 358 71 q 369 40 369 47 q 355 11 369 22 q 325 0 340 0 z "},"y":{"ha":565,"x_min":-42,"x_max":478,"o":"m 160 -7 q 82 20 113 -7 q 39 93 51 47 q 32 192 26 139 l 69 529 q 80 560 71 543 q 114 578 89 576 q 146 563 139 579 q 150 529 153 547 l 114 192 q 122 110 108 147 q 165 74 135 74 q 235 106 200 74 q 310 207 269 138 q 401 389 350 276 l 386 193 q 282 49 335 106 q 160 -7 229 -7 m -32 -396 q -15 -383 -24 -386 q 3 -380 -6 -379 q 19 -385 13 -381 q 65 -403 36 -393 q 124 -412 93 -412 q 219 -394 179 -412 q 283 -322 258 -376 q 319 -156 308 -267 l 393 543 q 406 568 394 557 q 436 579 418 579 q 465 570 453 579 q 475 539 478 561 l 403 -156 q 357 -355 390 -281 q 267 -462 324 -429 q 129 -494 211 -494 q 38 -481 78 -494 q -25 -453 -1 -468 q -40 -426 -39 -442 q -32 -396 -42 -410 z "},"z":{"ha":463,"x_min":-35,"x_max":425,"o":"m -24 72 l 353 563 l 381 578 q 409 567 397 578 q 423 542 421 557 q 413 510 425 526 l 33 18 l 8 0 q -19 12 -7 0 q -33 41 -31 24 q -24 72 -35 58 m 372 42 q 365 13 372 26 q 333 0 358 0 l 8 0 l 67 82 l 328 82 q 363 69 353 82 q 372 42 372 57 m 18 536 q 26 565 18 551 q 60 578 35 578 l 381 578 l 324 494 l 64 494 q 29 508 40 494 q 18 536 18 522 z "}," ":{"ha":386,"x_min":0,"x_max":0,"o":""}," ":{"ha":386,"x_min":0,"x_max":0,"o":""},".":{"ha":271,"x_min":24,"x_max":146,"o":"m 85 -10 q 43 11 63 -10 q 24 54 24 32 q 43 98 24 81 q 85 115 63 115 q 127 98 108 115 q 146 54 146 81 q 127 11 146 32 q 85 -10 108 -10 z "},",":{"ha":271,"x_min":25,"x_max":128,"o":"m 61 -167 q 33 -154 42 -167 q 26 -117 25 -142 l 43 35 q 57 70 46 58 q 89 82 68 82 q 119 69 110 82 q 125 29 128 56 l 108 -117 q 94 -154 107 -142 q 61 -167 82 -167 z "},":":{"ha":272,"x_min":24,"x_max":194,"o":"m 85 -10 q 43 11 63 -10 q 24 54 24 32 q 43 98 24 81 q 85 115 63 115 q 127 98 108 115 q 146 54 146 81 q 127 11 146 32 q 85 -10 108 -10 m 133 363 q 92 383 111 363 q 72 428 72 404 q 92 472 72 454 q 133 489 111 489 q 176 472 158 489 q 194 428 194 454 q 176 383 194 404 q 133 363 158 363 z "},";":{"ha":272,"x_min":25,"x_max":194,"o":"m 61 -167 q 33 -154 42 -167 q 26 -117 25 -142 l 43 35 q 57 70 46 58 q 89 82 68 82 q 119 69 110 82 q 125 29 128 56 l 108 -117 q 94 -154 107 -142 q 61 -167 82 -167 m 133 363 q 92 383 111 363 q 72 428 72 404 q 92 472 72 454 q 133 489 111 489 q 176 472 158 489 q 194 428 194 454 q 176 383 194 404 q 133 363 158 363 z "},"…":{"ha":633,"x_min":13,"x_max":503,"o":"m 442 -50 q 397 -30 415 -50 q 376 15 379 -10 q 391 58 375 39 q 433 76 407 76 q 478 58 458 76 q 500 15 499 39 q 485 -31 503 -11 q 442 -50 467 -50 m 79 -50 q 35 -30 53 -50 q 14 15 17 -10 q 28 58 13 39 q 71 76 44 76 q 116 58 96 76 q 138 15 136 39 q 122 -31 140 -11 q 79 -50 104 -50 m 261 -50 q 216 -30 235 -50 q 194 15 197 -10 q 210 58 193 39 q 253 76 226 76 q 297 58 278 76 q 318 15 317 39 q 303 -31 321 -11 q 261 -50 285 -50 z "},"!":{"ha":368,"x_min":54,"x_max":271,"o":"m 147 289 q 119 301 132 290 q 108 333 107 313 l 185 1038 q 203 1064 188 1056 q 235 1072 218 1072 q 260 1064 250 1072 q 269 1038 271 1056 l 193 333 q 177 299 192 310 q 147 289 163 288 m 122 -15 q 77 6 96 -15 q 56 50 58 26 q 70 93 54 74 q 113 113 86 113 q 161 93 140 113 q 183 50 182 74 q 167 5 186 25 q 122 -15 149 -15 z "},"¡":{"ha":324,"x_min":54,"x_max":264,"o":"m 214 700 l 140 35 q 124 8 139 17 q 94 0 110 0 q 66 8 78 -1 q 56 35 54 17 l 131 700 q 148 735 133 724 q 176 744 163 746 q 205 732 193 743 q 214 700 217 721 m 214 965 q 174 981 192 965 q 156 1018 157 997 q 170 1056 154 1039 q 208 1072 186 1072 q 246 1055 231 1072 q 263 1018 261 1038 q 251 982 264 999 q 214 965 238 965 z "},"?":{"ha":693,"x_min":97,"x_max":667,"o":"m 124 753 q 103 772 110 756 q 100 815 97 789 q 187 1006 113 933 q 404 1079 261 1079 q 540 1044 479 1081 q 634 947 601 1008 q 658 806 667 885 q 608 624 649 704 q 487 496 567 543 q 278 449 407 449 l 278 532 q 419 558 364 532 q 508 628 475 585 q 558 721 542 671 q 578 818 574 771 q 558 919 583 879 q 488 978 532 958 q 388 997 443 997 q 274 967 318 997 q 209 892 231 938 q 182 799 188 846 q 160 760 179 772 q 124 753 142 749 m 235 -10 q 190 10 208 -10 q 172 53 172 29 q 190 101 172 81 q 235 122 208 122 q 283 101 263 122 q 304 53 304 81 q 283 9 304 28 q 235 -10 263 -10 m 257 288 q 231 302 243 290 q 221 332 219 314 l 239 499 q 252 522 240 513 q 278 532 264 532 l 324 500 l 306 333 q 288 297 301 307 q 257 288 274 286 z "},"¿":{"ha":743,"x_min":63,"x_max":635,"o":"m 454 631 l 453 547 q 319 524 372 547 q 233 463 265 500 q 185 383 201 425 q 162 303 168 340 q 153 243 156 265 q 173 157 147 193 q 244 101 199 121 q 344 82 290 82 q 458 112 415 82 q 523 187 501 142 q 550 279 544 232 q 572 318 553 307 q 607 325 592 329 q 628 306 621 321 q 632 263 635 290 q 544 72 619 144 q 326 0 469 0 q 190 35 251 0 q 96 128 129 71 q 69 249 63 185 q 124 450 83 364 q 245 583 165 536 q 454 631 325 631 m 511 746 l 493 579 q 481 556 492 565 q 456 547 469 547 q 420 559 431 547 q 410 579 410 571 l 428 746 q 445 783 431 774 q 476 790 460 793 q 502 775 492 786 q 511 746 513 764 m 506 965 q 465 982 482 965 q 446 1021 447 999 q 460 1056 444 1040 q 499 1072 476 1072 q 535 1056 519 1072 q 553 1021 551 1040 q 540 982 554 999 q 506 965 526 965 z "},"·":{"ha":271,"x_min":42,"x_max":168,"o":"m 107 228 q 63 249 81 228 q 43 292 44 269 q 57 335 42 317 q 99 353 72 353 q 144 335 124 353 q 167 292 165 318 q 150 248 168 268 q 107 228 132 228 z "},"•":{"ha":396,"x_min":72,"x_max":325,"o":"m 204 458 q 141 476 169 458 q 94 524 113 494 q 74 586 76 554 q 86 647 72 619 q 127 692 100 675 q 188 710 154 710 q 251 692 221 710 q 300 647 281 675 q 322 586 319 619 q 309 524 325 553 q 265 476 293 494 q 204 458 238 458 z "},"*":{"ha":499,"x_min":132,"x_max":436,"o":"m 140 810 q 136 836 132 821 q 160 865 140 851 l 375 1003 q 408 1012 393 1014 q 429 1001 422 1010 q 433 975 436 990 q 410 947 429 960 l 194 808 q 161 799 175 797 q 140 810 147 800 m 414 811 q 390 801 406 801 q 360 811 375 800 l 174 950 q 153 977 156 963 q 160 1000 151 992 q 180 1011 167 1010 q 210 1000 193 1013 l 397 860 q 417 834 414 847 q 414 811 419 821 m 264 739 q 245 752 253 742 q 239 783 238 763 l 264 1028 q 279 1062 267 1051 q 304 1072 292 1072 q 323 1062 315 1072 q 328 1028 331 1051 l 304 783 q 289 749 301 761 q 264 739 276 738 z "},"#":{"ha":1203,"x_min":76,"x_max":1106,"o":"m 326 0 q 301 12 313 0 q 292 46 290 24 l 383 896 q 399 927 386 917 q 429 938 413 938 q 457 926 444 938 q 467 896 469 915 l 376 46 q 358 10 372 22 q 326 0 343 -1 m 753 0 q 724 11 736 -1 q 714 46 713 24 l 806 896 q 823 927 808 917 q 853 938 838 938 q 880 926 868 936 q 889 896 892 915 l 799 46 q 783 12 797 24 q 753 0 768 0 m 78 281 q 87 306 76 294 q 119 317 97 317 l 1018 317 q 1051 306 1040 317 q 1063 281 1061 294 q 1054 255 1064 267 q 1024 243 1044 243 l 124 243 q 91 255 103 243 q 78 281 79 267 m 119 669 q 128 696 118 683 q 160 708 138 708 l 1058 708 q 1092 696 1081 708 q 1106 669 1104 683 q 1095 644 1106 656 q 1063 633 1085 633 l 165 633 q 131 644 143 633 q 119 669 119 656 z "},"/":{"ha":554,"x_min":29,"x_max":500,"o":"m 74 -64 q 50 -58 61 -64 q 34 -40 39 -51 q 35 -14 29 -29 l 410 1035 q 429 1064 417 1056 q 456 1072 442 1072 q 479 1065 468 1072 q 495 1047 490 1058 q 493 1017 500 1035 l 119 -32 q 101 -56 114 -49 q 74 -64 89 -64 z "},"\\":{"ha":554,"x_min":31,"x_max":501,"o":"m 121 1035 l 494 -14 q 497 -40 501 -29 q 481 -58 492 -51 q 456 -64 469 -64 q 430 -56 442 -64 q 411 -32 418 -49 l 36 1017 q 35 1047 31 1035 q 51 1065 40 1058 q 74 1072 63 1072 q 101 1064 89 1072 q 121 1035 114 1056 z "},"-":{"ha":481,"x_min":46,"x_max":379,"o":"m 46 328 q 56 357 46 343 q 89 371 67 371 l 333 371 q 367 358 356 371 q 379 332 379 346 q 370 303 379 318 q 339 289 361 289 l 94 289 q 60 303 74 289 q 46 328 46 318 z "},"–":{"ha":611,"x_min":44,"x_max":511,"o":"m 468 289 l 94 289 q 60 301 72 289 q 46 328 47 314 q 56 352 44 342 q 89 363 67 363 l 464 363 q 497 352 486 363 q 510 328 508 342 q 501 301 511 314 q 468 289 492 289 z "},"—":{"ha":781,"x_min":44,"x_max":682,"o":"m 632 289 l 99 289 q 62 301 76 289 q 46 328 47 314 q 57 351 44 340 q 94 363 69 363 l 626 363 q 665 351 653 363 q 679 328 678 340 q 669 301 682 314 q 632 289 657 289 z "},"_":{"ha":711,"x_min":0,"x_max":569,"o":"m 525 -126 l 47 -126 q 15 -115 26 -126 q 1 -90 3 -104 q 10 -64 0 -75 q 43 -53 19 -53 l 519 -53 q 555 -64 543 -53 q 568 -89 567 -75 q 558 -115 569 -103 q 525 -126 547 -126 z "},"(":{"ha":582,"x_min":71,"x_max":526,"o":"m 354 -490 q 324 -492 340 -497 q 296 -467 307 -486 q 160 -165 211 -317 q 90 122 108 -14 q 82 361 71 258 q 117 515 89 429 q 193 692 146 600 q 304 875 240 785 q 444 1044 368 965 q 487 1072 467 1067 q 518 1065 507 1076 q 524 1041 526 1057 q 501 1001 521 1025 q 274 682 356 844 q 175 361 193 519 q 194 -11 157 185 q 351 -431 231 -207 q 363 -467 363 -451 q 354 -490 364 -483 z "},")":{"ha":556,"x_min":0,"x_max":454,"o":"m 7 -453 q 3 -428 0 -443 q 21 -396 7 -412 q 263 -46 186 -222 q 358 307 340 131 q 328 649 374 465 q 176 1035 283 833 q 163 1080 163 1063 q 174 1103 164 1097 q 206 1098 188 1110 q 240 1056 224 1086 q 340 845 299 954 q 408 631 382 736 q 444 435 435 526 q 447 275 454 343 q 389 48 436 172 q 262 -206 342 -76 q 69 -450 182 -335 q 37 -465 56 -465 q 7 -453 18 -464 z "},"{":{"ha":578,"x_min":100,"x_max":572,"o":"m 100 339 q 117 370 103 358 q 153 396 132 382 q 217 457 193 426 q 246 524 240 488 q 247 603 251 554 q 238 710 243 653 q 235 819 233 767 q 256 907 238 871 q 318 981 276 949 q 406 1034 360 1013 q 483 1064 451 1056 q 538 1065 511 1074 q 568 1038 564 1057 q 558 1005 572 1021 q 524 982 543 989 q 412 947 468 968 q 332 881 356 925 q 313 798 314 847 q 318 695 311 749 q 331 594 325 642 q 333 513 338 546 q 302 416 325 458 q 213 325 279 374 q 278 209 265 260 q 288 104 290 158 q 272 24 286 71 q 240 -73 257 -22 q 212 -173 222 -124 q 207 -261 201 -222 q 233 -333 214 -306 q 282 -382 253 -361 q 343 -426 311 -403 q 368 -459 363 -437 q 360 -492 374 -481 q 327 -502 347 -504 q 288 -485 307 -500 q 222 -428 258 -462 q 158 -353 186 -394 q 122 -264 131 -311 q 126 -172 117 -224 q 152 -68 136 -121 q 183 33 168 -15 q 200 117 197 82 q 142 267 204 186 q 114 301 128 286 q 100 339 100 317 z "},"}":{"ha":568,"x_min":-57,"x_max":418,"o":"m 415 282 q 400 251 415 263 q 363 225 385 240 q 301 164 324 194 q 271 97 278 133 q 269 31 267 74 q 274 -63 271 -11 q 281 -167 278 -115 q 279 -265 283 -219 q 261 -339 275 -310 q 198 -411 240 -379 q 110 -464 156 -443 q 32 -494 64 -485 q -22 -495 4 -504 q -53 -468 -49 -486 q -42 -435 -57 -451 q -7 -412 -28 -418 q 104 -376 49 -399 q 183 -310 160 -354 q 202 -220 201 -276 q 197 -101 203 -164 q 185 19 190 -37 q 185 107 181 75 q 216 204 193 161 q 304 296 239 247 q 240 412 253 361 q 229 517 226 463 q 247 588 232 550 q 277 667 261 626 q 303 750 293 708 q 308 831 314 792 q 283 903 303 875 q 234 951 263 931 q 172 994 206 972 q 149 1028 154 1007 q 156 1061 143 1050 q 188 1072 168 1074 q 228 1054 208 1069 q 294 999 258 1032 q 358 923 329 965 q 393 833 386 881 q 390 749 400 793 q 365 663 381 706 q 334 579 349 619 q 317 503 319 539 q 330 431 315 468 q 375 353 344 393 q 404 318 390 333 q 415 282 418 303 z "},"[":{"ha":433,"x_min":-1,"x_max":479,"o":"m 240 1019 l 85 -450 q 78 -478 83 -462 q 44 -494 72 -494 q 9 -481 19 -494 q 0 -450 -1 -468 l 157 1028 q 171 1060 160 1047 q 208 1072 182 1072 q 239 1058 235 1072 q 240 1019 243 1043 m 40 -494 l 44 -421 l 274 -421 q 308 -432 297 -421 q 318 -457 318 -443 q 310 -483 319 -471 q 279 -494 300 -494 l 40 -494 m 201 999 l 204 1072 l 432 1072 q 467 1060 456 1072 q 479 1035 479 1049 q 469 1010 479 1021 q 438 999 458 999 l 201 999 z "},"]":{"ha":433,"x_min":-115,"x_max":364,"o":"m 361 1028 l 204 -450 q 193 -482 203 -469 q 156 -494 183 -494 q 125 -478 129 -494 q 124 -428 121 -461 l 278 1015 q 286 1056 281 1039 q 318 1072 292 1072 q 353 1060 343 1072 q 361 1028 364 1047 m 156 -494 l -68 -494 q -102 -483 -90 -494 q -115 -457 -114 -471 q -104 -432 -115 -443 q -72 -421 -93 -421 l 161 -421 l 156 -494 m 314 999 l 90 999 q 56 1010 68 999 q 43 1035 44 1021 q 53 1060 42 1049 q 86 1072 64 1072 l 318 1072 l 314 999 z "},"“":{"ha":481,"x_min":136,"x_max":421,"o":"m 178 825 q 149 837 163 825 q 139 871 136 849 l 156 1029 q 173 1062 158 1051 q 201 1072 188 1072 q 230 1060 217 1072 q 240 1024 243 1047 l 222 865 q 207 835 221 846 q 178 825 193 825 m 358 825 q 328 837 340 825 q 317 871 315 849 l 335 1036 q 351 1063 338 1054 q 378 1072 364 1072 q 408 1060 396 1072 q 419 1024 421 1047 l 404 868 q 388 835 403 844 q 358 825 374 825 z "},"”":{"ha":481,"x_min":136,"x_max":421,"o":"m 178 825 q 149 837 163 825 q 139 871 136 849 l 156 1029 q 173 1062 158 1051 q 201 1072 188 1072 q 230 1060 217 1072 q 240 1024 243 1047 l 222 865 q 207 835 221 846 q 178 825 193 825 m 358 825 q 328 837 340 825 q 317 871 315 849 l 335 1036 q 351 1063 338 1054 q 378 1072 364 1072 q 408 1060 396 1072 q 419 1024 421 1047 l 404 868 q 388 835 403 844 q 358 825 374 825 z "},"‘":{"ha":299,"x_min":135,"x_max":240,"o":"m 178 825 q 148 837 161 825 q 138 871 135 849 l 156 1036 q 171 1063 158 1054 q 199 1072 183 1072 q 228 1060 215 1072 q 239 1024 240 1047 l 222 860 q 207 833 221 842 q 178 825 193 825 z "},"’":{"ha":299,"x_min":135,"x_max":240,"o":"m 178 825 q 148 837 161 825 q 138 871 135 849 l 156 1036 q 171 1063 158 1054 q 199 1072 183 1072 q 228 1060 215 1072 q 239 1024 240 1047 l 222 860 q 207 833 221 842 q 178 825 193 825 z "},"\"":{"ha":481,"x_min":136,"x_max":421,"o":"m 178 825 q 149 837 163 825 q 139 871 136 849 l 156 1029 q 173 1062 158 1051 q 201 1072 188 1072 q 230 1060 217 1072 q 240 1024 243 1047 l 222 865 q 207 835 221 846 q 178 825 193 825 m 358 825 q 328 837 340 825 q 317 871 315 849 l 335 1036 q 351 1063 338 1054 q 378 1072 364 1072 q 408 1060 396 1072 q 419 1024 421 1047 l 404 868 q 388 835 403 844 q 358 825 374 825 z "},"'":{"ha":299,"x_min":135,"x_max":240,"o":"m 178 825 q 148 837 161 825 q 138 871 135 849 l 156 1036 q 171 1063 158 1054 q 199 1072 183 1072 q 228 1060 215 1072 q 239 1024 240 1047 l 222 860 q 207 833 221 842 q 178 825 193 825 z "},"@":{"ha":1085,"x_min":18,"x_max":1017,"o":"m 333 0 q 265 28 293 0 q 233 119 238 56 q 238 230 231 167 q 260 354 244 293 q 300 454 276 415 q 369 528 329 501 q 454 565 408 554 q 546 576 500 576 l 721 576 l 714 493 l 551 493 q 455 476 508 493 q 368 403 401 458 q 337 318 350 371 q 318 212 324 265 q 315 126 313 158 q 320 92 317 107 q 342 76 324 76 q 382 92 357 76 q 442 145 407 108 q 524 244 478 182 q 612 378 571 310 q 693 533 653 447 l 735 533 q 663 339 704 436 q 568 167 622 242 q 501 85 538 124 q 423 24 464 47 q 333 0 382 0 m 350 -194 q 194 -166 258 -194 q 90 -85 129 -137 q 34 42 50 -32 q 24 204 18 115 q 51 383 29 290 q 115 558 72 476 q 228 690 158 639 q 338 744 272 724 q 480 775 404 765 q 629 785 556 785 q 920 691 824 785 q 1015 393 1017 597 q 984 247 1014 318 q 909 121 954 176 q 817 33 864 65 q 738 0 771 0 q 669 32 693 0 q 642 124 646 64 q 641 180 640 149 q 646 240 642 211 l 682 576 l 731 576 q 758 567 750 576 q 763 539 765 558 l 728 218 q 723 119 722 158 q 740 79 724 79 q 792 106 761 79 q 855 180 824 132 q 909 290 886 228 q 936 422 932 351 q 904 578 942 515 q 797 672 867 640 q 631 703 726 703 q 493 694 561 703 q 368 666 425 685 q 275 619 311 647 q 199 531 229 583 q 149 418 168 478 q 121 302 131 358 q 107 203 111 246 q 119 35 99 106 q 193 -74 139 -36 q 339 -112 247 -112 q 437 -99 383 -112 q 542 -47 490 -86 q 583 -26 565 -31 q 611 -36 600 -22 q 615 -81 626 -54 q 560 -139 604 -108 q 469 -180 521 -165 q 350 -194 417 -194 z "},"&":{"ha":849,"x_min":56,"x_max":746,"o":"m 310 -7 q 176 32 232 -7 q 91 131 121 71 q 58 254 61 190 q 91 395 56 328 q 186 519 126 463 q 315 619 246 576 l 350 640 q 536 780 471 715 q 599 901 601 844 q 569 961 597 936 q 481 986 542 986 q 384 969 426 986 q 317 923 342 951 q 289 858 292 894 q 299 806 288 836 q 327 742 310 775 q 363 681 344 710 q 392 632 381 651 l 713 90 q 731 40 729 64 q 714 7 733 17 q 678 6 694 -4 q 649 36 661 15 l 322 582 q 274 659 304 613 q 222 758 244 706 q 204 858 200 811 q 247 961 211 913 q 346 1040 283 1010 q 490 1069 408 1071 q 584 1051 540 1069 q 656 999 628 1032 q 686 918 685 965 q 661 811 689 864 q 576 706 633 758 q 429 599 518 653 l 354 554 q 253 475 301 522 q 176 372 206 428 q 149 257 147 317 q 202 126 151 176 q 331 76 253 76 q 455 109 401 76 q 556 205 508 142 q 657 357 604 268 q 690 383 671 376 q 726 378 708 390 q 744 345 746 365 q 729 307 742 325 q 604 126 664 196 q 475 25 544 57 q 310 -7 406 -7 z "},"©":{"ha":1378,"x_min":21,"x_max":1308,"o":"m 665 -132 q 415 -82 532 -132 q 210 57 299 -32 q 71 262 121 146 q 21 511 21 378 q 71 761 21 644 q 210 967 121 878 q 415 1106 299 1056 q 665 1156 532 1156 q 915 1106 799 1156 q 1119 967 1031 1056 q 1258 761 1208 878 q 1308 511 1308 644 q 1258 262 1308 378 q 1119 57 1208 146 q 915 -82 1031 -32 q 665 -132 799 -132 m 828 414 q 759 305 799 356 q 676 223 719 254 q 588 192 632 192 q 505 226 542 192 q 447 325 468 261 q 426 476 426 389 q 444 590 426 526 q 495 714 461 654 q 581 813 529 774 q 703 851 633 851 q 779 845 736 851 q 844 831 822 839 q 867 812 863 825 q 863 779 872 799 q 836 754 853 758 q 804 756 819 750 q 775 763 793 760 q 738 768 757 767 q 703 769 718 769 q 617 738 654 769 q 556 659 581 707 q 520 562 532 611 q 508 476 508 513 q 517 388 508 436 q 543 307 525 340 q 588 274 561 274 q 639 299 610 274 q 699 365 668 324 q 756 453 731 406 q 781 465 763 467 q 808 458 799 464 q 826 440 817 454 q 828 414 835 426 m 665 -50 q 883 -6 781 -50 q 1062 115 985 38 q 1183 294 1139 193 q 1226 513 1226 396 q 1183 729 1226 628 q 1061 908 1139 831 q 882 1028 983 985 q 665 1072 781 1072 q 449 1028 550 1072 q 269 908 347 985 q 148 729 192 831 q 104 513 104 628 q 148 294 104 396 q 269 115 192 193 q 448 -6 346 38 q 665 -50 550 -50 z "},"®":{"ha":915,"x_min":119,"x_max":878,"o":"m 401 674 q 376 682 385 674 q 369 703 368 690 l 404 1024 q 411 1040 406 1035 q 428 1044 417 1044 q 457 1038 440 1044 q 472 1018 474 1032 l 439 700 q 429 682 438 690 q 401 674 421 674 m 578 674 q 562 676 572 674 q 546 686 551 679 l 401 878 l 489 872 l 604 719 q 608 704 610 714 q 604 690 607 694 q 592 679 600 685 q 578 674 585 674 m 424 850 l 426 915 q 494 917 464 915 q 542 924 524 918 q 561 942 560 929 q 525 969 564 961 q 426 976 486 976 l 428 1044 q 540 1034 494 1044 q 608 1001 585 1024 q 626 940 631 979 q 603 885 622 904 q 556 858 585 865 q 493 851 528 851 q 424 850 458 850 m 499 476 q 351 506 419 476 q 230 588 282 536 q 149 709 178 640 q 119 857 119 778 q 149 1003 119 935 q 230 1124 178 1072 q 351 1206 282 1176 q 499 1236 419 1236 q 647 1206 578 1236 q 767 1124 715 1176 q 849 1003 819 1072 q 878 857 878 935 q 849 709 878 778 q 767 588 819 640 q 647 506 715 536 q 499 476 578 476 m 499 556 q 649 597 582 556 q 757 706 717 638 q 797 857 797 774 q 757 1007 797 939 q 649 1115 717 1075 q 499 1156 582 1156 q 347 1115 415 1156 q 239 1007 279 1075 q 199 857 199 939 q 239 706 199 774 q 347 597 279 638 q 499 556 415 556 z "},"™":{"ha":1288,"x_min":103,"x_max":1251,"o":"m 343 1094 l 293 621 q 284 595 292 608 q 254 582 276 582 q 222 596 233 582 q 213 640 210 610 l 261 1094 l 343 1094 m 472 1074 l 147 1074 q 115 1087 126 1074 q 103 1117 103 1100 q 111 1146 103 1133 q 140 1158 119 1158 l 465 1158 q 498 1145 486 1158 q 510 1117 510 1132 q 501 1087 510 1100 q 472 1074 492 1074 m 893 667 l 871 582 q 846 590 854 582 q 831 611 838 597 l 629 1086 l 647 1158 q 678 1151 667 1158 q 696 1131 690 1144 l 893 667 m 685 1113 l 635 625 q 625 598 633 611 q 594 585 617 585 q 562 599 572 585 q 553 632 551 614 l 606 1122 q 620 1151 608 1144 q 649 1158 632 1158 l 685 1113 m 1157 582 q 1126 597 1138 582 q 1115 631 1114 613 l 1164 1074 l 1213 1158 q 1242 1147 1232 1158 q 1249 1113 1251 1135 l 1197 621 q 1188 594 1196 607 q 1157 582 1179 582 m 846 665 l 1174 1140 q 1192 1154 1181 1150 q 1214 1158 1204 1158 l 1224 1065 l 910 607 q 892 588 900 594 q 869 582 885 582 l 846 665 z "},"°":{"ha":449,"x_min":132,"x_max":414,"o":"m 217 714 q 177 724 194 714 q 149 756 160 733 q 135 818 139 779 q 144 924 132 876 q 169 997 157 971 q 216 1055 186 1029 q 292 1081 246 1081 q 378 1056 349 1081 q 411 982 408 1031 q 399 897 414 943 q 357 808 385 850 q 293 740 329 767 q 217 714 257 714 m 222 779 q 264 799 242 779 q 306 851 286 819 q 337 915 325 882 q 346 971 349 947 q 333 1006 344 996 q 293 1015 321 1015 q 258 1005 272 1015 q 233 971 244 994 q 208 899 218 935 q 200 831 197 864 q 205 794 201 808 q 222 779 208 779 z "},"|":{"ha":300,"x_min":-1,"x_max":253,"o":"m 43 -494 q 10 -481 21 -494 q 0 -450 -1 -468 l 167 1108 q 184 1144 169 1132 q 213 1156 199 1156 q 241 1143 229 1156 q 249 1103 253 1131 l 85 -454 q 77 -481 83 -467 q 43 -494 71 -494 z "},"¦":{"ha":300,"x_min":-1,"x_max":253,"o":"m 157 222 l 85 -454 q 77 -481 83 -467 q 43 -494 71 -494 q 10 -481 21 -494 q 0 -450 -1 -468 l 72 222 q 89 256 74 244 q 121 267 104 267 q 147 256 136 267 q 157 222 158 244 m 249 1103 l 178 439 q 162 406 176 418 q 132 394 147 394 q 105 406 117 393 q 94 439 93 418 l 167 1108 q 184 1144 169 1132 q 213 1156 199 1156 q 241 1143 229 1156 q 249 1103 253 1131 z "},"¢":{"ha":472,"x_min":17,"x_max":431,"o":"m 140 -260 q 107 -246 118 -260 q 97 -214 96 -232 l 226 747 q 244 782 229 771 q 272 793 258 793 q 300 781 288 793 q 308 740 313 768 l 182 -218 q 174 -245 181 -231 q 140 -260 168 -260 m 158 -7 q 92 8 125 -7 q 38 60 58 24 q 17 157 17 96 q 31 300 17 226 q 74 437 44 374 q 153 539 104 500 q 271 578 201 578 q 342 572 304 578 q 404 561 381 567 q 426 543 422 557 q 422 510 431 529 q 395 486 413 489 q 363 485 378 483 q 320 491 347 488 q 271 494 293 494 q 193 463 225 494 q 141 381 161 431 q 111 276 121 331 q 100 174 101 221 q 111 108 99 139 q 158 76 124 76 q 208 101 179 76 q 267 166 236 125 q 322 254 297 207 q 347 267 329 268 q 375 261 365 265 q 392 242 383 256 q 394 217 401 229 q 326 107 365 158 q 245 24 288 56 q 158 -7 203 -7 z "},"$":{"ha":814,"x_min":28,"x_max":753,"o":"m 247 0 l 78 0 q 43 13 54 0 q 29 40 32 25 q 40 69 28 56 q 72 82 53 82 l 243 82 q 385 91 321 82 q 497 119 449 100 q 570 170 544 139 q 596 246 596 201 q 568 328 596 294 q 490 388 540 361 q 375 444 440 415 q 243 510 306 476 q 142 589 181 544 q 103 693 103 633 q 149 822 103 767 q 280 908 196 876 q 475 939 364 939 l 703 939 q 738 926 726 939 q 751 899 750 914 q 744 870 753 883 q 717 857 735 857 l 481 857 q 319 835 386 857 q 218 777 253 813 q 183 701 183 742 q 217 635 183 668 q 302 572 250 601 q 413 515 354 542 q 547 448 488 482 q 642 368 607 414 q 678 253 678 322 q 656 150 678 193 q 596 78 635 107 q 503 32 557 49 q 385 8 450 15 q 247 0 319 0 m 499 1019 l 379 -89 q 365 -121 378 -110 q 339 -132 353 -132 q 314 -119 325 -132 q 306 -85 303 -107 l 424 1026 q 439 1061 426 1050 q 465 1072 451 1072 q 491 1059 481 1072 q 499 1019 501 1046 z "},"€":{"ha":886,"x_min":7,"x_max":835,"o":"m 414 -7 q 228 60 299 -7 q 139 255 158 128 q 153 561 119 382 q 234 821 181 706 q 371 1003 288 936 q 568 1071 454 1071 q 678 1058 632 1071 q 756 1024 724 1044 q 811 982 789 1003 q 828 956 822 972 q 818 919 835 939 q 783 906 803 901 q 751 919 763 910 q 678 965 725 939 q 572 990 632 990 q 413 933 479 990 q 303 778 346 876 q 236 551 260 679 q 240 189 192 308 q 407 69 289 69 q 527 97 475 69 q 616 165 579 124 q 674 246 653 206 q 703 286 688 274 q 739 288 718 299 q 759 258 760 276 q 743 207 758 239 q 669 106 718 156 q 554 25 619 57 q 414 -7 489 -7 m 456 601 l 81 601 q 47 613 58 601 q 33 639 35 625 q 42 664 32 653 q 75 675 53 675 l 450 675 q 484 664 474 675 q 496 639 494 653 q 488 613 499 625 q 456 601 478 601 m 429 351 l 54 351 q 20 364 32 351 q 8 390 8 376 q 17 415 7 404 q 49 426 26 426 l 424 426 q 459 415 447 426 q 472 390 471 404 q 462 363 472 375 q 429 351 451 351 z "},"£":{"ha":719,"x_min":28,"x_max":658,"o":"m 97 542 q 106 567 97 557 q 139 578 114 578 l 490 578 q 525 567 515 578 q 535 542 535 557 q 527 515 535 526 q 494 503 519 503 l 143 503 q 108 515 119 503 q 97 542 97 526 m 68 0 q 38 8 47 0 q 30 31 28 17 q 43 63 32 46 q 72 97 46 67 q 133 173 97 126 q 204 274 169 219 q 260 385 239 329 q 276 479 275 426 q 269 576 278 532 q 247 638 261 621 q 179 735 207 689 q 138 821 151 781 q 124 896 124 861 q 147 979 124 942 q 218 1043 171 1017 q 277 1065 246 1058 q 342 1072 308 1072 q 499 1041 419 1072 q 631 965 579 1010 q 658 925 658 942 q 646 896 657 908 q 616 885 636 885 q 565 910 596 885 q 459 967 524 946 q 336 989 394 989 q 290 985 313 989 q 251 971 268 981 q 214 904 214 949 q 249 796 214 857 q 322 679 283 735 q 353 612 342 653 q 365 524 364 571 q 361 433 367 478 q 342 351 356 388 q 276 221 317 285 q 193 101 236 157 q 115 0 150 44 l 68 0 m 74 0 l 104 82 l 517 82 q 551 69 542 82 q 561 42 560 57 q 554 13 563 26 q 521 0 546 0 l 74 0 z "},"¥":{"ha":806,"x_min":97,"x_max":801,"o":"m 574 410 l 200 410 q 165 422 178 410 q 151 447 153 433 q 161 472 150 461 q 194 483 172 483 l 569 483 q 603 472 592 483 q 615 447 614 461 q 607 422 617 433 q 574 410 597 410 m 547 226 l 174 226 q 139 238 151 226 q 126 264 126 250 q 135 289 125 278 q 168 300 146 300 l 543 300 q 577 289 565 300 q 590 264 589 278 q 581 238 590 250 q 547 226 571 226 m 125 1072 q 163 1068 149 1082 q 183 1039 178 1054 l 440 479 l 386 397 l 106 1011 q 101 1048 97 1031 q 125 1072 104 1065 m 149 10 q 135 33 136 18 q 142 63 133 49 l 719 1047 q 745 1071 731 1067 q 774 1068 760 1075 q 797 1041 793 1058 q 790 1004 801 1024 l 211 19 q 192 2 204 7 q 169 0 181 -3 q 149 10 158 3 z "},"+":{"ha":611,"x_min":44,"x_max":511,"o":"m 261 94 q 233 108 246 94 q 222 143 221 121 l 261 513 q 274 542 264 532 q 297 551 285 551 q 324 538 313 551 q 335 501 336 525 l 297 142 q 284 105 294 115 q 261 94 274 94 m 46 326 q 56 351 44 340 q 89 363 67 363 l 464 363 q 497 351 486 363 q 510 326 508 340 q 501 301 511 313 q 468 289 492 289 l 94 289 q 60 301 72 289 q 46 326 47 313 z "},"−":{"ha":611,"x_min":44,"x_max":511,"o":"m 94 289 q 60 301 72 289 q 46 326 47 313 q 56 351 44 340 q 89 363 67 363 l 464 363 q 497 351 486 363 q 510 326 508 340 q 501 301 511 313 q 468 289 492 289 l 94 289 z "},"×":{"ha":611,"x_min":24,"x_max":531,"o":"m 515 479 l 104 111 q 68 97 86 94 q 38 111 50 100 q 26 138 28 122 q 38 167 24 154 l 450 536 q 485 549 467 551 q 515 536 504 547 q 529 510 528 526 q 515 479 531 494 m 142 529 l 475 168 q 488 136 490 153 q 474 108 486 119 q 447 99 464 99 q 415 114 431 99 l 79 481 q 67 513 65 496 q 79 539 69 529 q 108 549 90 550 q 142 529 125 549 z "},"÷":{"ha":611,"x_min":44,"x_max":510,"o":"m 467 289 l 93 289 q 59 300 71 289 q 46 326 47 311 q 55 351 44 340 q 88 363 65 363 l 463 363 q 497 351 486 363 q 509 326 508 340 q 499 300 510 311 q 467 289 489 289 m 260 94 q 222 111 238 94 q 204 149 207 128 q 215 185 203 168 q 251 201 228 201 q 291 186 272 201 q 313 149 310 171 q 298 111 314 128 q 260 94 282 94 m 299 450 q 260 468 276 450 q 243 506 244 486 q 254 542 240 525 q 290 558 268 558 q 329 542 311 558 q 350 506 347 526 q 335 467 351 483 q 299 450 319 450 z "},"=":{"ha":611,"x_min":32,"x_max":524,"o":"m 481 410 l 106 410 q 72 422 83 410 q 58 447 60 433 q 67 472 57 461 q 100 483 78 483 l 475 483 q 509 472 499 483 q 521 447 519 461 q 513 422 524 433 q 481 410 503 410 m 454 160 l 79 160 q 45 172 57 160 q 33 199 33 185 q 42 224 32 213 q 74 235 51 235 l 449 235 q 484 224 472 235 q 497 199 496 213 q 487 172 497 183 q 454 160 476 160 z "},"≠":{"ha":611,"x_min":32,"x_max":524,"o":"m 394 515 l 225 85 q 206 64 219 68 q 178 63 192 60 q 156 83 164 68 q 157 119 149 97 l 326 550 q 344 572 333 565 q 368 578 356 578 q 390 571 381 578 q 401 550 399 564 q 394 515 403 536 m 454 160 l 79 160 q 45 172 57 160 q 33 199 33 185 q 42 224 32 213 q 74 235 51 235 l 449 235 q 484 224 472 235 q 497 199 496 213 q 487 172 497 183 q 454 160 476 160 m 481 410 l 106 410 q 72 422 83 410 q 58 447 60 433 q 67 472 57 461 q 100 483 78 483 l 475 483 q 509 472 499 483 q 521 447 519 461 q 513 422 524 433 q 481 410 503 410 z "},">":{"ha":561,"x_min":22,"x_max":463,"o":"m 444 296 l 86 99 q 49 94 64 86 q 28 115 35 103 q 27 143 22 129 q 56 169 32 157 l 397 357 l 444 296 m 399 299 l 93 485 q 69 513 75 497 q 72 543 64 529 q 97 556 82 556 q 133 544 113 557 l 439 358 q 460 333 458 346 q 454 307 463 321 q 433 290 447 294 q 399 299 419 286 z "},"<":{"ha":561,"x_min":43,"x_max":483,"o":"m 108 292 l 61 353 l 421 550 q 458 553 443 561 q 476 533 472 546 q 478 505 483 519 q 450 479 474 490 l 108 292 m 372 104 l 68 290 q 46 315 49 303 q 53 342 43 328 q 73 358 60 354 q 106 350 86 363 l 413 164 q 438 135 432 151 q 433 106 443 119 q 408 92 424 93 q 372 104 392 92 z "},"≥":{"ha":576,"x_min":35,"x_max":478,"o":"m 415 342 l 97 535 q 74 563 79 547 q 78 592 69 578 q 102 606 86 604 q 139 594 118 607 l 454 401 q 476 376 474 389 q 468 350 478 364 q 448 334 461 338 q 415 342 435 331 m 419 160 l 82 160 q 48 172 60 160 q 36 199 36 185 q 45 224 35 213 q 78 235 56 235 l 414 235 q 449 224 438 235 q 463 199 461 213 q 452 172 463 183 q 419 160 442 160 m 447 333 l 96 333 q 60 347 69 333 q 50 375 50 361 q 63 400 51 390 q 100 410 74 410 l 440 410 l 447 333 z "},"≤":{"ha":574,"x_min":33,"x_max":501,"o":"m 476 535 l 117 342 q 85 335 99 332 q 61 350 71 338 q 51 378 50 364 q 69 401 51 392 l 429 594 q 464 605 449 606 q 490 592 479 604 q 499 561 501 578 q 476 535 496 544 m 418 160 l 81 160 q 47 172 58 160 q 35 199 35 183 q 44 224 33 213 q 76 235 54 235 l 413 235 q 447 224 435 235 q 460 199 458 213 q 450 172 460 185 q 418 160 440 160 m 86 333 l 82 410 l 422 410 q 463 397 450 410 q 476 371 476 385 q 468 345 479 357 q 438 333 457 333 l 86 333 z "},"±":{"ha":561,"x_min":32,"x_max":474,"o":"m 318 569 l 290 313 q 278 283 289 293 q 254 274 267 274 q 228 287 240 274 q 217 324 215 300 l 244 581 q 258 610 247 600 q 281 619 268 619 q 308 606 296 619 q 318 569 321 593 m 404 160 l 79 160 q 45 172 57 160 q 33 199 33 185 q 42 224 32 213 q 74 235 51 235 l 399 235 q 434 224 422 235 q 447 199 446 213 q 437 172 447 183 q 404 160 426 160 m 431 410 l 106 410 q 72 422 83 410 q 58 447 60 433 q 67 472 57 461 q 100 483 78 483 l 426 483 q 460 472 449 483 q 472 447 471 461 q 463 422 474 433 q 431 410 453 410 z "},"≈":{"ha":611,"x_min":32,"x_max":524,"o":"m 363 375 q 309 390 340 375 q 247 422 278 406 q 190 438 215 438 q 143 426 161 438 q 107 406 125 415 q 82 406 93 400 q 65 425 71 413 q 58 447 60 438 q 67 469 57 461 q 99 485 78 476 q 144 503 122 494 q 199 511 167 511 q 255 495 224 511 q 317 464 286 479 q 371 449 349 449 q 428 462 408 449 q 471 485 449 475 q 496 485 485 492 q 514 468 507 479 q 521 447 521 457 q 513 425 524 433 q 482 406 503 417 q 429 385 456 396 q 363 375 403 375 m 339 125 q 285 140 315 125 q 223 172 254 156 q 165 188 192 188 q 118 176 136 188 q 81 157 100 165 q 56 157 67 150 q 40 176 46 164 q 33 199 33 189 q 42 220 32 213 q 74 236 51 228 q 119 253 97 244 q 174 263 142 263 q 231 247 200 263 q 293 215 263 231 q 346 200 324 200 q 403 213 383 200 q 446 236 424 225 q 471 237 460 243 q 489 219 482 231 q 497 199 496 208 q 488 176 497 185 q 456 157 478 167 q 405 135 431 146 q 339 125 379 125 z "},"~":{"ha":611,"x_min":44,"x_max":511,"o":"m 351 261 q 298 276 329 261 q 235 308 267 292 q 178 324 204 324 q 132 313 150 324 q 96 292 114 301 q 71 292 82 286 q 53 311 60 299 q 46 333 47 324 q 56 355 44 347 q 88 371 67 363 q 132 389 110 381 q 186 397 154 397 q 244 381 213 397 q 306 350 275 365 q 360 335 338 335 q 417 348 397 335 q 458 371 436 361 q 483 372 472 378 q 502 354 494 365 q 510 333 510 343 q 501 311 511 319 q 471 292 492 303 q 418 272 444 282 q 351 261 392 261 z "},"^":{"ha":678,"x_min":104,"x_max":568,"o":"m 175 485 q 140 473 156 469 q 114 486 125 476 q 104 513 104 497 q 119 542 104 529 l 339 725 q 374 738 356 740 q 403 725 393 736 l 556 543 q 566 512 568 529 q 551 483 564 494 q 524 473 540 474 q 493 489 507 472 l 332 682 l 401 675 l 175 485 z "},"∞":{"ha":1076,"x_min":36,"x_max":1001,"o":"m 453 351 l 456 460 q 579 554 518 524 q 695 592 640 585 q 793 592 750 600 q 867 569 829 586 q 937 524 906 553 q 985 451 968 494 q 994 349 1001 408 q 959 240 988 285 q 889 169 931 196 q 802 134 847 143 q 717 132 757 125 q 625 170 669 140 q 542 241 581 200 q 472 324 503 282 l 453 351 m 460 463 l 465 346 q 358 237 413 289 q 249 155 303 185 q 149 133 196 125 q 92 163 115 139 q 57 223 69 188 q 40 298 44 258 q 40 372 36 338 q 62 460 44 417 q 108 538 79 504 q 179 589 138 572 q 275 596 221 606 q 355 565 321 589 q 414 513 389 542 q 458 460 439 485 l 410 397 q 371 444 393 419 q 320 490 349 469 q 257 515 292 510 q 183 501 211 524 q 141 444 154 479 q 124 375 128 408 q 124 308 122 346 q 133 241 125 269 q 157 210 142 213 q 208 231 172 207 q 290 292 244 254 q 381 376 336 331 q 460 463 426 421 m 517 397 l 535 375 q 592 306 561 342 q 658 246 624 271 q 726 214 692 221 q 804 224 763 208 q 878 274 846 240 q 914 353 910 307 q 901 427 919 393 q 848 485 882 461 q 774 515 814 508 q 660 501 726 524 q 517 397 594 479 z "},"%":{"ha":825,"x_min":69,"x_max":761,"o":"m 149 0 q 115 15 129 0 q 113 51 100 29 l 586 886 q 633 924 606 924 q 657 917 646 924 q 673 897 668 910 q 668 868 678 885 l 194 33 q 149 0 176 0 m 519 -7 q 477 4 496 -7 q 449 42 458 15 q 439 111 439 68 q 458 228 439 175 q 490 310 476 281 q 547 375 511 346 q 635 404 583 404 q 729 376 697 404 q 761 293 761 347 q 740 198 761 250 q 685 99 719 146 q 607 23 650 53 q 519 -7 564 -7 m 533 67 q 581 90 554 67 q 631 147 607 113 q 671 218 656 182 q 686 281 686 254 q 674 319 686 308 q 632 331 663 331 q 592 319 608 331 q 560 281 575 308 q 526 201 540 240 q 511 124 511 161 q 514 83 511 99 q 533 67 517 67 m 150 519 q 107 531 125 519 q 79 568 89 542 q 69 638 69 594 q 88 754 69 701 q 121 836 106 807 q 178 901 142 872 q 265 931 214 931 q 360 902 328 931 q 392 819 392 874 q 371 724 392 776 q 315 626 350 672 q 238 549 281 579 q 150 519 194 519 m 164 592 q 211 615 185 592 q 262 672 238 638 q 301 744 286 707 q 317 807 317 781 q 304 846 317 835 q 261 857 292 857 q 222 846 238 857 q 190 807 206 835 q 156 727 171 767 q 142 650 142 688 q 144 608 142 625 q 164 592 147 592 z "},"`":{"ha":410,"x_min":164,"x_max":350,"o":"m 253 1126 l 333 968 q 328 922 350 933 q 303 922 318 917 q 275 944 288 926 l 176 1096 q 166 1127 164 1114 q 178 1149 168 1140 q 201 1157 189 1157 q 229 1150 215 1157 q 253 1126 243 1143 z "},"˜":{"ha":611,"x_min":44,"x_max":511,"o":"m 351 769 q 298 785 329 769 q 235 816 267 800 q 178 832 204 832 q 132 820 150 832 q 96 800 114 808 q 71 801 82 794 q 53 819 60 807 q 46 842 47 832 q 56 863 44 856 q 88 879 67 871 q 132 897 110 889 q 186 906 154 906 q 244 890 213 906 q 306 858 275 874 q 360 843 338 843 q 417 856 397 843 q 458 879 436 869 q 483 880 472 886 q 502 863 494 874 q 510 842 510 851 q 501 819 511 828 q 471 800 492 811 q 418 779 444 789 q 351 769 392 769 z "}}}
